<svg width="75" height="33" viewBox="0 0 75 33" fill="none" xmlns="http://www.w3.org/2000/svg">
<path d="M11.2142 0.850056C10.4584 0.839383 9.65674 0.896983 8.80353 1.03091C5.84976 1.63427 3.25293 3.37958 1.3132 7.22784C0.0393963 10.4045 0.399112 13.2347 1.34913 15.9397C2.16169 17.6864 3.04015 19.433 4.18843 21.1797L10.3762 29.9273C10.5144 30.1486 10.5863 30.2772 10.2047 30.2761C8.9634 30.2683 7.69852 30.3994 6.33825 30.7722C6.07661 30.8744 5.70177 31.0481 6.39662 31.4414C7.91626 32.0537 11.8279 32.4846 15.6383 31.4952C16.0195 31.3807 16.4004 30.9165 15.6113 30.7049C14.4363 30.4217 13.2382 30.1936 11.9291 30.2288C11.7578 30.2404 11.7746 30.1479 11.884 30.0043L18.0004 21.4451C24.3796 12.5707 21.3493 6.33572 18.8985 4.16541C16.901 2.22347 14.4892 0.896306 11.2142 0.850056ZM11.1912 4.36056C11.8137 4.37031 12.4095 4.80549 12.2434 5.79549C13.6271 6.08681 14.5962 6.77784 15.5125 7.51987C15.745 7.7437 15.6417 7.87141 15.526 7.99573L11.884 12.0105C11.6692 12.3505 11.4208 12.3649 11.1342 12.0105C10.6907 11.6059 10.3678 11.112 9.40089 11.0943C8.66647 11.1138 8.10271 11.7218 7.58201 12.4774H5.58822C5.07551 12.463 4.94393 12.0518 5.00456 11.4401C5.40259 8.95871 6.70908 6.89834 10.0429 5.77743C9.74602 4.88476 10.4857 4.34951 11.1912 4.36056ZM18.937 6.25785C19.5602 6.20565 20.0701 6.92349 19.7787 7.55124L12.1177 15.9037C11.9192 16.1025 11.359 16.1661 11.0758 15.9037L8.78566 13.416C8.65002 12.7634 9.26859 11.9678 10.025 12.2934L11.1388 13.4609C11.3835 13.722 11.6933 13.7447 12.0818 13.479L18.665 6.32972C18.7567 6.28832 18.848 6.26531 18.937 6.25785ZM2.38364 6.68706C2.55481 6.70298 2.71457 6.80909 2.74 6.95785V9.1172C2.82256 9.36364 2.95265 9.18893 2.95599 9.1172V6.89452C3.1246 6.55418 3.62905 6.73986 3.6673 6.89452V9.16802C3.74646 9.34002 3.81449 9.30865 3.87675 9.16802V6.98326C4.01155 6.56693 4.61105 6.65623 4.70241 6.98326L4.69606 9.95536C4.49021 10.3539 4.25354 10.7339 3.87039 10.8636V16.0078C3.62007 16.5034 3.07008 16.6288 2.75905 16.0078V10.8446C2.28394 10.6168 2.02682 10.293 1.9588 9.88568V6.95785C2.02987 6.74544 2.21248 6.67115 2.38364 6.68706ZM17.0991 11.8257C17.2989 11.9269 17.4645 12.6508 16.3943 12.5278L17.0991 11.8257ZM5.16596 13.4103H7.56652L8.03643 14.4644L5.16596 14.4962C4.63513 14.3112 4.76858 13.5332 5.16596 13.4103ZM17.8705 13.4133C18.1885 13.4542 18.4893 14.3724 17.8705 14.4929L14.9461 14.4771L15.8353 13.4197L17.8705 13.4133Z" fill="#0D1748"/>
<path d="M28.4727 3.9408H36.3043V6.07834H30.709V9.63491H35.5948V11.5659H30.691V16.7481H28.4816L28.4727 3.9408Z" fill="#0D1748"/>
<path d="M42.0132 7.07467C41.3751 7.07466 40.7432 7.19872 40.1537 7.43975C39.5642 7.68078 39.0286 8.03406 38.5774 8.47943C38.1262 8.92479 37.7683 9.45352 37.5241 10.0354C37.2799 10.6173 37.1543 11.241 37.1543 11.8708C37.1543 13.1428 37.6662 14.3627 38.5774 15.2621C39.4887 16.1615 40.7245 16.6668 42.0132 16.6668C43.3018 16.6668 44.5377 16.1615 45.4489 15.2621C46.3601 14.3627 46.8721 13.1428 46.8721 11.8708C46.8721 11.241 46.7464 10.6173 46.5023 10.0354C46.2581 9.45352 45.9002 8.92479 45.449 8.47943C44.9978 8.03406 44.4621 7.68078 43.8726 7.43975C43.2831 7.19872 42.6513 7.07466 42.0132 7.07467ZM42.0132 9.10457C42.7206 9.10459 43.3991 9.39698 43.8993 9.91742C44.3995 10.4379 44.6805 11.1437 44.6806 11.8797C44.6805 12.6158 44.3995 13.3216 43.8993 13.8421C43.3991 14.3625 42.7206 14.6549 42.0132 14.6549C41.6629 14.6549 41.316 14.5832 40.9924 14.4437C40.6687 14.3042 40.3746 14.0998 40.1269 13.8421C39.8792 13.5844 39.6827 13.2785 39.5487 12.9418C39.4146 12.6051 39.3456 12.2442 39.3456 11.8797C39.3456 11.5153 39.4146 11.1544 39.5487 10.8177C39.6827 10.481 39.8792 10.175 40.1269 9.91735C40.3746 9.65965 40.6687 9.45524 40.9924 9.31578C41.316 9.17632 41.6629 9.10456 42.0132 9.10457Z" fill="#0D1748"/>
<path d="M52.7397 7.33564C52.1016 7.33564 51.4698 7.45969 50.8803 7.70072C50.2908 7.94175 49.7551 8.29503 49.3039 8.7404C48.8527 9.18576 48.4948 9.71449 48.2507 10.2964C48.0065 10.8783 47.8808 11.5019 47.8809 12.1318C47.8809 13.4038 48.3928 14.6236 49.304 15.523C50.2152 16.4224 51.4511 16.9277 52.7397 16.9277C54.0284 16.9277 55.2643 16.4224 56.1755 15.523C57.0867 14.6236 57.5986 13.4038 57.5986 12.1318C57.5986 11.5019 57.473 10.8783 57.2288 10.2964C56.9846 9.71449 56.6267 9.18576 56.1755 8.7404C55.7244 8.29503 55.1887 7.94175 54.5992 7.70072C54.0097 7.45969 53.3778 7.33564 52.7397 7.33564ZM52.7397 9.36555C53.4472 9.36556 54.1256 9.65795 54.6259 10.1784C55.1261 10.6988 55.4071 11.4047 55.4071 12.1407C55.4071 12.8767 55.1261 13.5826 54.6259 14.103C54.1256 14.6235 53.4472 14.9159 52.7397 14.9159C52.3894 14.9159 52.0426 14.8441 51.7189 14.7047C51.3953 14.5652 51.1012 14.3608 50.8535 14.1031C50.6058 13.8454 50.4093 13.5395 50.2752 13.2028C50.1412 12.8661 50.0722 12.5052 50.0722 12.1407C50.0722 11.7763 50.1412 11.4154 50.2752 11.0787C50.4093 10.742 50.6058 10.436 50.8535 10.1783C51.1012 9.92062 51.3953 9.71621 51.7189 9.57675C52.0426 9.43729 52.3894 9.36553 52.7397 9.36555Z" fill="#0D1748"/>
<path d="M66.3162 8.19838C65.5283 7.65463 64.5695 7.33564 63.5352 7.33564C60.8516 7.33563 58.6762 9.48296 58.6763 12.1318C58.6763 14.7805 60.8517 16.9277 63.5352 16.9277C64.579 16.9277 65.546 16.6028 66.338 16.0498L66.3802 16.0271V16.7507H68.5204V3.92864L66.3802 3.91594V8.23839L66.3162 8.19838ZM63.5352 9.36555C65.0083 9.36558 66.2025 10.6081 66.2025 12.1407C66.2025 13.6734 65.0083 14.9158 63.5352 14.9159C62.0619 14.916 60.8676 13.6735 60.8676 12.1407C60.8676 10.608 62.0619 9.36547 63.5352 9.36555Z" fill="#0D1748"/>
<path d="M28.26 19.0941H37.4209V21.1962H33.9661V31.8146H31.718V21.1962H28.2505L28.26 19.0941Z" fill="#1A399A"/>
<path d="M38.0503 22.8506V31.8141H40.272V26.8542C40.5681 25.7373 41.3304 25.0311 42.6323 24.8002H43.2039V22.6473C41.5934 22.5493 40.8255 23.2731 40.1714 24.108V22.8569L38.0503 22.8506Z" fill="#1A399A"/>
<path d="M51.75 31.8825L53.8794 31.805V22.8633L51.75 22.8485V23.5234L51.6742 23.3808C50.8979 22.8621 49.9616 22.5591 48.9536 22.5591C46.2701 22.5591 44.0946 24.7064 44.0947 27.3552C44.0947 30.004 46.2701 32.1512 48.9536 32.1512C50.1338 32.1512 51.065 31.7517 51.7573 31.2727L51.75 31.8825ZM48.9536 24.589C50.4268 24.5891 51.621 25.8315 51.621 27.3642C51.621 28.8969 50.4268 30.1393 48.9536 30.1394C47.4804 30.1394 46.2861 28.8969 46.286 27.3642C46.2861 25.8314 47.4804 24.5889 48.9536 24.589Z" fill="#1A399A"/>
<path d="M64.4497 24.8987L62.6461 25.9529C61.5501 24.1531 58.8761 24.0291 57.8831 26.3911C57.5381 28.323 58.2233 29.4369 59.6041 29.9983C60.5863 30.183 61.5896 30.145 62.7223 28.7408L64.4434 29.884C63.0944 32.3793 60.3851 32.3602 58.334 31.7574C57.1818 31.2161 55.2885 29.9999 55.5714 26.5054C55.8806 24.6285 57.1145 22.9343 59.7819 22.6188C62.3861 22.4491 63.6288 23.4869 64.4497 24.8987Z" fill="#1A399A"/>
<path d="M66.0693 19.0814V31.7955H68.3111V27.8136L71.7596 31.8019H74.5094L70.6482 27.1405L74.23 22.841H71.5055L68.3746 26.5816V19.0433L66.0693 19.0814Z" fill="#1A399A"/>
</svg>
