<svg width="40" height="40" viewBox="0 0 40 40" fill="none" xmlns="http://www.w3.org/2000/svg">
<path d="M30.8327 5.0033L25.1004 10.7355C24.1241 11.7118 24.1241 13.2948 25.1004 14.2711L26.2494 15.42M26.2494 15.42L27.3982 16.5689C28.3746 17.5452 29.9574 17.5452 30.9337 16.5689L36.6661 10.8366M26.2494 15.42L6.66602 35.0034" stroke="#0D1748" stroke-width="2.5" stroke-linecap="round" stroke-linejoin="round"/>
<path d="M33.3337 8.33167L29.167 12.4983" stroke="#0D1748" stroke-width="2.5" stroke-linecap="round" stroke-linejoin="round"/>
<path d="M13.3149 14.9835C11.3242 16.9741 8.59424 17.4718 6.10596 14.9835C3.61759 12.4951 2.31302 7.96301 4.30372 5.97231C6.29442 3.98161 10.8265 5.28616 13.3149 7.77454C15.8032 10.2628 15.3056 12.9928 13.3149 14.9835ZM13.3149 14.9835L33.333 35.0016" stroke="#0D1748" stroke-width="2.5" stroke-linecap="round"/>
<path d="M15.342 3.99448C16.8202 3.56513 18.383 3.33496 19.9997 3.33496C21.9192 3.33496 23.7628 3.65944 25.479 4.25656M3.41529 18.335C3.36087 18.8832 3.33301 19.4392 3.33301 20.0017C3.33301 23.388 4.34297 26.5385 6.07812 29.1683M12.9541 35.1102C15.0942 36.1098 17.4817 36.6683 19.9997 36.6683C22.5403 36.6683 24.9482 36.0998 27.103 35.0832M33.9212 29.1683C35.6563 26.5385 36.6663 23.388 36.6663 20.0017C36.6663 19.038 36.5845 18.0935 36.4275 17.1747" stroke="#0D1748" stroke-width="2.5" stroke-linecap="round"/>
</svg>
